<svg xmlns="http://www.w3.org/2000/svg" version="1.1" xmlns:xlink="http://www.w3.org/1999/xlink" xmlns:svgjs="http://svgjs.com/svgjs" width="1440" height="560" preserveAspectRatio="none" viewBox="0 0 1440 560"><g mask="url(&quot;#SvgjsMask1000&quot;)" fill="none"><rect width="1440" height="560" x="0" y="0" fill="#0e2a47"></rect><path d="M-112.19 368.26L-112.19 368.26" stroke="#132e65" stroke-width="1.5"></path><path d="M-112.19 368.26L70.19 340.67" stroke="#132e65" stroke-width="1.5"></path><path d="M-112.19 368.26L-47.81 546.93" stroke="#132e65" stroke-width="1.5"></path><path d="M-47.81 546.93L-47.81 546.93" stroke="#132e65" stroke-width="1.5"></path><path d="M-47.81 546.93L70.26 546" stroke="#132e65" stroke-width="1.5"></path><path d="M-47.81 546.93L-97.52 706.15" stroke="#132e65" stroke-width="1.5"></path><path d="M-97.52 706.15L-97.52 706.15" stroke="#132e65" stroke-width="1.5"></path><path d="M-97.52 706.15L90.72 690.08" stroke="#132e65" stroke-width="1.5"></path><path d="M-97.52 706.15L70.26 546" stroke="#132e65" stroke-width="1.5"></path><path d="M-97.52 706.15L-112.19 368.26" stroke="#132e65" stroke-width="1.5"></path><path d="M-97.52 706.15L217.51 559.56" stroke="#132e65" stroke-width="1.5"></path><path d="M-97.52 706.15L256.5 675.64" stroke="#132e65" stroke-width="1.5"></path><path d="M70.19 340.67L70.19 340.67" stroke="#132e65" stroke-width="1.5"></path><path d="M70.19 340.67L70.26 546" stroke="#132e65" stroke-width="1.5"></path><path d="M70.26 546L70.26 546" stroke="#132e65" stroke-width="1.5"></path><path d="M70.26 546L90.72 690.08" stroke="#132e65" stroke-width="1.5"></path><path d="M90.72 690.08L90.72 690.08" stroke="#132e65" stroke-width="1.5"></path><path d="M90.72 690.08L256.5 675.64" stroke="#132e65" stroke-width="1.5"></path><path d="M90.72 690.08L217.51 559.56" stroke="#132e65" stroke-width="1.5"></path><path d="M217.51 559.56L217.51 559.56" stroke="#132e65" stroke-width="1.5"></path><path d="M217.51 559.56L256.5 675.64" stroke="#132e65" stroke-width="1.5"></path><path d="M217.51 559.56L354.61 528.53" stroke="#132e65" stroke-width="1.5"></path><path d="M217.51 559.56L70.26 546" stroke="#132e65" stroke-width="1.5"></path><path d="M217.51 559.56L405.03 696.36" stroke="#132e65" stroke-width="1.5"></path><path d="M256.5 675.64L256.5 675.64" stroke="#132e65" stroke-width="1.5"></path><path d="M256.5 675.64L405.03 696.36" stroke="#132e65" stroke-width="1.5"></path><path d="M256.5 675.64L354.61 528.53" stroke="#132e65" stroke-width="1.5"></path><path d="M256.5 675.64L70.26 546" stroke="#132e65" stroke-width="1.5"></path><path d="M343.08 347.74L343.08 347.74" stroke="#132e65" stroke-width="1.5"></path><path d="M343.08 347.74L516.82 345.12" stroke="#132e65" stroke-width="1.5"></path><path d="M343.08 347.74L354.61 528.53" stroke="#132e65" stroke-width="1.5"></path><path d="M343.08 347.74L494.55 503.35" stroke="#132e65" stroke-width="1.5"></path><path d="M343.08 347.74L217.51 559.56" stroke="#132e65" stroke-width="1.5"></path><path d="M343.08 347.74L70.19 340.67" stroke="#132e65" stroke-width="1.5"></path><path d="M343.08 347.74L638.51 353.48" stroke="#132e65" stroke-width="1.5"></path><path d="M354.61 528.53L354.61 528.53" stroke="#132e65" stroke-width="1.5"></path><path d="M354.61 528.53L494.55 503.35" stroke="#132e65" stroke-width="1.5"></path><path d="M354.61 528.53L405.03 696.36" stroke="#132e65" stroke-width="1.5"></path><path d="M405.03 696.36L405.03 696.36" stroke="#132e65" stroke-width="1.5"></path><path d="M405.03 696.36L516.78 648.67" stroke="#132e65" stroke-width="1.5"></path><path d="M516.82 345.12L516.82 345.12" stroke="#132e65" stroke-width="1.5"></path><path d="M516.82 345.12L638.51 353.48" stroke="#132e65" stroke-width="1.5"></path><path d="M516.82 345.12L494.55 503.35" stroke="#132e65" stroke-width="1.5"></path><path d="M516.82 345.12L700.81 487.81" stroke="#132e65" stroke-width="1.5"></path><path d="M516.82 345.12L354.61 528.53" stroke="#132e65" stroke-width="1.5"></path><path d="M494.55 503.35L494.55 503.35" stroke="#132e65" stroke-width="1.5"></path><path d="M494.55 503.35L516.78 648.67" stroke="#132e65" stroke-width="1.5"></path><path d="M494.55 503.35L700.81 487.81" stroke="#132e65" stroke-width="1.5"></path><path d="M494.55 503.35L638.51 353.48" stroke="#132e65" stroke-width="1.5"></path><path d="M494.55 503.35L405.03 696.36" stroke="#132e65" stroke-width="1.5"></path><path d="M516.78 648.67L516.78 648.67" stroke="#132e65" stroke-width="1.5"></path><path d="M638.51 353.48L638.51 353.48" stroke="#132e65" stroke-width="1.5"></path><path d="M638.51 353.48L700.81 487.81" stroke="#132e65" stroke-width="1.5"></path><path d="M700.81 487.81L700.81 487.81" stroke="#132e65" stroke-width="1.5"></path><path d="M700.81 487.81L787.68 542.66" stroke="#132e65" stroke-width="1.5"></path><path d="M668.11 661.47L668.11 661.47" stroke="#132e65" stroke-width="1.5"></path><path d="M668.11 661.47L516.78 648.67" stroke="#132e65" stroke-width="1.5"></path><path d="M668.11 661.47L827.62 703.11" stroke="#132e65" stroke-width="1.5"></path><path d="M668.11 661.47L787.68 542.66" stroke="#132e65" stroke-width="1.5"></path><path d="M853.82 247.19L853.82 247.19" stroke="#132e65" stroke-width="1.5"></path><path d="M853.82 247.19L1004.56 220.69" stroke="#132e65" stroke-width="1.5"></path><path d="M853.82 247.19L992.17 374.05" stroke="#132e65" stroke-width="1.5"></path><path d="M853.82 247.19L988.66 64.29" stroke="#132e65" stroke-width="1.5"></path><path d="M853.82 247.19L638.51 353.48" stroke="#132e65" stroke-width="1.5"></path><path d="M787.68 542.66L787.68 542.66" stroke="#132e65" stroke-width="1.5"></path><path d="M787.68 542.66L827.62 703.11" stroke="#132e65" stroke-width="1.5"></path><path d="M827.62 703.11L827.62 703.11" stroke="#132e65" stroke-width="1.5"></path><path d="M827.62 703.11L979.62 655.75" stroke="#132e65" stroke-width="1.5"></path><path d="M827.62 703.11L700.81 487.81" stroke="#132e65" stroke-width="1.5"></path><path d="M827.62 703.11L992.38 503.42" stroke="#132e65" stroke-width="1.5"></path><path d="M975.46 -37.58L975.46 -37.58" stroke="#132e65" stroke-width="1.5"></path><path d="M975.46 -37.58L988.66 64.29" stroke="#132e65" stroke-width="1.5"></path><path d="M975.46 -37.58L1094.08 86.22" stroke="#132e65" stroke-width="1.5"></path><path d="M975.46 -37.58L1141.42 -104.95" stroke="#132e65" stroke-width="1.5"></path><path d="M988.66 64.29L988.66 64.29" stroke="#132e65" stroke-width="1.5"></path><path d="M988.66 64.29L1094.08 86.22" stroke="#132e65" stroke-width="1.5"></path><path d="M988.66 64.29L1004.56 220.69" stroke="#132e65" stroke-width="1.5"></path><path d="M988.66 64.29L1132.34 232.06" stroke="#132e65" stroke-width="1.5"></path><path d="M988.66 64.29L1141.42 -104.95" stroke="#132e65" stroke-width="1.5"></path><path d="M1004.56 220.69L1004.56 220.69" stroke="#132e65" stroke-width="1.5"></path><path d="M1004.56 220.69L1132.34 232.06" stroke="#132e65" stroke-width="1.5"></path><path d="M1004.56 220.69L992.17 374.05" stroke="#132e65" stroke-width="1.5"></path><path d="M992.17 374.05L992.17 374.05" stroke="#132e65" stroke-width="1.5"></path><path d="M992.17 374.05L1113.15 379.8" stroke="#132e65" stroke-width="1.5"></path><path d="M992.17 374.05L992.38 503.42" stroke="#132e65" stroke-width="1.5"></path><path d="M992.38 503.42L992.38 503.42" stroke="#132e65" stroke-width="1.5"></path><path d="M992.38 503.42L1126.86 494.49" stroke="#132e65" stroke-width="1.5"></path><path d="M992.38 503.42L979.62 655.75" stroke="#132e65" stroke-width="1.5"></path><path d="M992.38 503.42L1113.15 379.8" stroke="#132e65" stroke-width="1.5"></path><path d="M992.38 503.42L787.68 542.66" stroke="#132e65" stroke-width="1.5"></path><path d="M979.62 655.75L979.62 655.75" stroke="#132e65" stroke-width="1.5"></path><path d="M979.62 655.75L1130.77 711.48" stroke="#132e65" stroke-width="1.5"></path><path d="M979.62 655.75L1126.86 494.49" stroke="#132e65" stroke-width="1.5"></path><path d="M1141.42 -104.95L1141.42 -104.95" stroke="#132e65" stroke-width="1.5"></path><path d="M1141.42 -104.95L1284.93 -62.22" stroke="#132e65" stroke-width="1.5"></path><path d="M1141.42 -104.95L1094.08 86.22" stroke="#132e65" stroke-width="1.5"></path><path d="M1141.42 -104.95L1288.01 64.71" stroke="#132e65" stroke-width="1.5"></path><path d="M1141.42 -104.95L1412.76 -55.46" stroke="#132e65" stroke-width="1.5"></path><path d="M1094.08 86.22L1094.08 86.22" stroke="#132e65" stroke-width="1.5"></path><path d="M1094.08 86.22L1132.34 232.06" stroke="#132e65" stroke-width="1.5"></path><path d="M1094.08 86.22L1004.56 220.69" stroke="#132e65" stroke-width="1.5"></path><path d="M1132.34 232.06L1132.34 232.06" stroke="#132e65" stroke-width="1.5"></path><path d="M1132.34 232.06L1278.55 208.2" stroke="#132e65" stroke-width="1.5"></path><path d="M1132.34 232.06L1113.15 379.8" stroke="#132e65" stroke-width="1.5"></path><path d="M1132.34 232.06L992.17 374.05" stroke="#132e65" stroke-width="1.5"></path><path d="M1132.34 232.06L1298.78 344.24" stroke="#132e65" stroke-width="1.5"></path><path d="M1113.15 379.8L1113.15 379.8" stroke="#132e65" stroke-width="1.5"></path><path d="M1113.15 379.8L1126.86 494.49" stroke="#132e65" stroke-width="1.5"></path><path d="M1126.86 494.49L1126.86 494.49" stroke="#132e65" stroke-width="1.5"></path><path d="M1126.86 494.49L1289.7 489.42" stroke="#132e65" stroke-width="1.5"></path><path d="M1126.86 494.49L992.17 374.05" stroke="#132e65" stroke-width="1.5"></path><path d="M1126.86 494.49L1130.77 711.48" stroke="#132e65" stroke-width="1.5"></path><path d="M1130.77 711.48L1130.77 711.48" stroke="#132e65" stroke-width="1.5"></path><path d="M1130.77 711.48L1294.44 671.8" stroke="#132e65" stroke-width="1.5"></path><path d="M1130.77 711.48L992.38 503.42" stroke="#132e65" stroke-width="1.5"></path><path d="M1130.77 711.48L1289.7 489.42" stroke="#132e65" stroke-width="1.5"></path><path d="M1130.77 711.48L827.62 703.11" stroke="#132e65" stroke-width="1.5"></path><path d="M1284.93 -62.22L1284.93 -62.22" stroke="#132e65" stroke-width="1.5"></path><path d="M1284.93 -62.22L1288.01 64.71" stroke="#132e65" stroke-width="1.5"></path><path d="M1284.93 -62.22L1412.76 -55.46" stroke="#132e65" stroke-width="1.5"></path><path d="M1284.93 -62.22L1445.74 43.51" stroke="#132e65" stroke-width="1.5"></path><path d="M1284.93 -62.22L1094.08 86.22" stroke="#132e65" stroke-width="1.5"></path><path d="M1288.01 64.71L1288.01 64.71" stroke="#132e65" stroke-width="1.5"></path><path d="M1288.01 64.71L1278.55 208.2" stroke="#132e65" stroke-width="1.5"></path><path d="M1288.01 64.71L1445.74 43.51" stroke="#132e65" stroke-width="1.5"></path><path d="M1278.55 208.2L1278.55 208.2" stroke="#132e65" stroke-width="1.5"></path><path d="M1278.55 208.2L1298.78 344.24" stroke="#132e65" stroke-width="1.5"></path><path d="M1278.55 208.2L1417.47 230.52" stroke="#132e65" stroke-width="1.5"></path><path d="M1298.78 344.24L1298.78 344.24" stroke="#132e65" stroke-width="1.5"></path><path d="M1298.78 344.24L1437.21 376.53" stroke="#132e65" stroke-width="1.5"></path><path d="M1298.78 344.24L1289.7 489.42" stroke="#132e65" stroke-width="1.5"></path><path d="M1298.78 344.24L1417.47 230.52" stroke="#132e65" stroke-width="1.5"></path><path d="M1298.78 344.24L1113.15 379.8" stroke="#132e65" stroke-width="1.5"></path><path d="M1289.7 489.42L1289.7 489.42" stroke="#132e65" stroke-width="1.5"></path><path d="M1289.7 489.42L1426.35 504.22" stroke="#132e65" stroke-width="1.5"></path><path d="M1289.7 489.42L1294.44 671.8" stroke="#132e65" stroke-width="1.5"></path><path d="M1289.7 489.42L1437.21 376.53" stroke="#132e65" stroke-width="1.5"></path><path d="M1289.7 489.42L1113.15 379.8" stroke="#132e65" stroke-width="1.5"></path><path d="M1294.44 671.8L1294.44 671.8" stroke="#132e65" stroke-width="1.5"></path><path d="M1294.44 671.8L1440.61 665.99" stroke="#132e65" stroke-width="1.5"></path><path d="M1412.76 -55.46L1412.76 -55.46" stroke="#132e65" stroke-width="1.5"></path><path d="M1412.76 -55.46L1445.74 43.51" stroke="#132e65" stroke-width="1.5"></path><path d="M1412.76 -55.46L1558.81 -91.58" stroke="#132e65" stroke-width="1.5"></path><path d="M1445.74 43.51L1445.74 43.51" stroke="#132e65" stroke-width="1.5"></path><path d="M1445.74 43.51L1548.55 54.13" stroke="#132e65" stroke-width="1.5"></path><path d="M1445.74 43.51L1558.81 -91.58" stroke="#132e65" stroke-width="1.5"></path><path d="M1445.74 43.51L1417.47 230.52" stroke="#132e65" stroke-width="1.5"></path><path d="M1417.47 230.52L1417.47 230.52" stroke="#132e65" stroke-width="1.5"></path><path d="M1417.47 230.52L1437.21 376.53" stroke="#132e65" stroke-width="1.5"></path><path d="M1417.47 230.52L1606.54 249.09" stroke="#132e65" stroke-width="1.5"></path><path d="M1417.47 230.52L1288.01 64.71" stroke="#132e65" stroke-width="1.5"></path><path d="M1437.21 376.53L1437.21 376.53" stroke="#132e65" stroke-width="1.5"></path><path d="M1437.21 376.53L1426.35 504.22" stroke="#132e65" stroke-width="1.5"></path><path d="M1437.21 376.53L1609.16 372.91" stroke="#132e65" stroke-width="1.5"></path><path d="M1426.35 504.22L1426.35 504.22" stroke="#132e65" stroke-width="1.5"></path><path d="M1440.61 665.99L1440.61 665.99" stroke="#132e65" stroke-width="1.5"></path><path d="M1440.61 665.99L1553.07 694.79" stroke="#132e65" stroke-width="1.5"></path><path d="M1440.61 665.99L1426.35 504.22" stroke="#132e65" stroke-width="1.5"></path><path d="M1440.61 665.99L1577.28 530.49" stroke="#132e65" stroke-width="1.5"></path><path d="M1558.81 -91.58L1558.81 -91.58" stroke="#132e65" stroke-width="1.5"></path><path d="M1558.81 -91.58L1548.55 54.13" stroke="#132e65" stroke-width="1.5"></path><path d="M1558.81 -91.58L1284.93 -62.22" stroke="#132e65" stroke-width="1.5"></path><path d="M1558.81 -91.58L1288.01 64.71" stroke="#132e65" stroke-width="1.5"></path><path d="M1558.81 -91.58L1606.54 249.09" stroke="#132e65" stroke-width="1.5"></path><path d="M1548.55 54.13L1548.55 54.13" stroke="#132e65" stroke-width="1.5"></path><path d="M1548.55 54.13L1412.76 -55.46" stroke="#132e65" stroke-width="1.5"></path><path d="M1606.54 249.09L1606.54 249.09" stroke="#132e65" stroke-width="1.5"></path><path d="M1606.54 249.09L1609.16 372.91" stroke="#132e65" stroke-width="1.5"></path><path d="M1606.54 249.09L1548.55 54.13" stroke="#132e65" stroke-width="1.5"></path><path d="M1606.54 249.09L1437.21 376.53" stroke="#132e65" stroke-width="1.5"></path><path d="M1609.16 372.91L1609.16 372.91" stroke="#132e65" stroke-width="1.5"></path><path d="M1609.16 372.91L1577.28 530.49" stroke="#132e65" stroke-width="1.5"></path><path d="M1609.16 372.91L1426.35 504.22" stroke="#132e65" stroke-width="1.5"></path><path d="M1577.28 530.49L1577.28 530.49" stroke="#132e65" stroke-width="1.5"></path><path d="M1577.28 530.49L1426.35 504.22" stroke="#132e65" stroke-width="1.5"></path><path d="M1577.28 530.49L1553.07 694.79" stroke="#132e65" stroke-width="1.5"></path><path d="M1553.07 694.79L1553.07 694.79" stroke="#132e65" stroke-width="1.5"></path><path d="M1553.07 694.79L1426.35 504.22" stroke="#132e65" stroke-width="1.5"></path><path d="M1553.07 694.79L1294.44 671.8" stroke="#132e65" stroke-width="1.5"></path><circle r="5" cx="-112.19" cy="368.26" fill="#132e65"></circle><circle r="5" cx="-47.81" cy="546.93" fill="#132e65"></circle><circle r="5" cx="-97.52" cy="706.15" fill="#132e65"></circle><circle r="5" cx="70.19" cy="340.67" fill="#132e65"></circle><circle r="5" cx="70.26" cy="546" fill="#132e65"></circle><circle r="5" cx="90.72" cy="690.08" fill="#132e65"></circle><circle r="5" cx="217.51" cy="559.56" fill="#132e65"></circle><circle r="5" cx="256.5" cy="675.64" fill="#132e65"></circle><circle r="5" cx="343.08" cy="347.74" fill="#132e65"></circle><circle r="5" cx="354.61" cy="528.53" fill="#132e65"></circle><circle r="5" cx="405.03" cy="696.36" fill="#132e65"></circle><circle r="5" cx="516.82" cy="345.12" fill="#132e65"></circle><circle r="5" cx="494.55" cy="503.35" fill="#132e65"></circle><circle r="5" cx="516.78" cy="648.67" fill="#132e65"></circle><circle r="5" cx="638.51" cy="353.48" fill="#132e65"></circle><circle r="5" cx="700.81" cy="487.81" fill="#132e65"></circle><circle r="5" cx="668.11" cy="661.47" fill="#132e65"></circle><circle r="5" cx="853.82" cy="247.19" fill="#132e65"></circle><circle r="5" cx="787.68" cy="542.66" fill="#132e65"></circle><circle r="5" cx="827.62" cy="703.11" fill="#132e65"></circle><circle r="5" cx="975.46" cy="-37.58" fill="#132e65"></circle><circle r="5" cx="988.66" cy="64.29" fill="#132e65"></circle><circle r="5" cx="1004.56" cy="220.69" fill="#132e65"></circle><circle r="5" cx="992.17" cy="374.05" fill="#132e65"></circle><circle r="5" cx="992.38" cy="503.42" fill="#132e65"></circle><circle r="5" cx="979.62" cy="655.75" fill="#132e65"></circle><circle r="5" cx="1141.42" cy="-104.95" fill="#132e65"></circle><circle r="5" cx="1094.08" cy="86.22" fill="#132e65"></circle><circle r="5" cx="1132.34" cy="232.06" fill="#132e65"></circle><circle r="5" cx="1113.15" cy="379.8" fill="#132e65"></circle><circle r="5" cx="1126.86" cy="494.49" fill="#132e65"></circle><circle r="5" cx="1130.77" cy="711.48" fill="#132e65"></circle><circle r="5" cx="1284.93" cy="-62.22" fill="#132e65"></circle><circle r="5" cx="1288.01" cy="64.71" fill="#132e65"></circle><circle r="5" cx="1278.55" cy="208.2" fill="#132e65"></circle><circle r="5" cx="1298.78" cy="344.24" fill="#132e65"></circle><circle r="5" cx="1289.7" cy="489.42" fill="#132e65"></circle><circle r="5" cx="1294.44" cy="671.8" fill="#132e65"></circle><circle r="5" cx="1412.76" cy="-55.46" fill="#132e65"></circle><circle r="5" cx="1445.74" cy="43.51" fill="#132e65"></circle><circle r="5" cx="1417.47" cy="230.52" fill="#132e65"></circle><circle r="5" cx="1437.21" cy="376.53" fill="#132e65"></circle><circle r="5" cx="1426.35" cy="504.22" fill="#132e65"></circle><circle r="5" cx="1440.61" cy="665.99" fill="#132e65"></circle><circle r="5" cx="1558.81" cy="-91.58" fill="#132e65"></circle><circle r="5" cx="1548.55" cy="54.13" fill="#132e65"></circle><circle r="5" cx="1606.54" cy="249.09" fill="#132e65"></circle><circle r="5" cx="1609.16" cy="372.91" fill="#132e65"></circle><circle r="5" cx="1577.28" cy="530.49" fill="#132e65"></circle><circle r="5" cx="1553.07" cy="694.79" fill="#132e65"></circle><path d="M349.54 649.78L349.54 649.78" stroke="hsl(228.5, 77.2%, 51.5%)" stroke-width="1.5"></path><path d="M349.54 649.78L241.79 686.28" stroke="hsl(228.5, 77.2%, 51.5%)" stroke-width="1.5"></path><path d="M349.54 649.78L246.03 522.42" stroke="hsl(228.5, 77.2%, 51.5%)" stroke-width="1.5"></path><path d="M349.54 649.78L506 560.81" stroke="hsl(228.5, 77.2%, 51.5%)" stroke-width="1.5"></path><path d="M659.94 705.28L659.94 705.28" stroke="hsl(228.5, 77.2%, 51.5%)" stroke-width="1.5"></path><path d="M659.94 705.28L547.94 649.65" stroke="hsl(228.5, 77.2%, 51.5%)" stroke-width="1.5"></path><path d="M659.94 705.28L639.05 530.23" stroke="hsl(228.5, 77.2%, 51.5%)" stroke-width="1.5"></path><path d="M1429.14 -45.31L1429.14 -45.31" stroke="hsl(228.5, 77.2%, 51.5%)" stroke-width="1.5"></path><path d="M1429.14 -45.31L1460.2 77.52" stroke="hsl(228.5, 77.2%, 51.5%)" stroke-width="1.5"></path><path d="M1429.14 -45.31L1566.69 -82.22" stroke="hsl(228.5, 77.2%, 51.5%)" stroke-width="1.5"></path><path d="M1429.14 -45.31L1537.7 68.28" stroke="hsl(228.5, 77.2%, 51.5%)" stroke-width="1.5"></path><path d="M1429.14 -45.31L1258.89 -103.7" stroke="hsl(228.5, 77.2%, 51.5%)" stroke-width="1.5"></path><path d="M1429.14 -45.31L1304.37 111.89" stroke="hsl(228.5, 77.2%, 51.5%)" stroke-width="1.5"></path><path d="M1429.14 -45.31L1431.88 189.89" stroke="hsl(228.5, 77.2%, 51.5%)" stroke-width="1.5"></path><path d="M1609.41 525.98L1609.41 525.98" stroke="hsl(228.5, 77.2%, 51.5%)" stroke-width="1.5"></path><path d="M1609.41 525.98L1553.3 682.86" stroke="hsl(228.5, 77.2%, 51.5%)" stroke-width="1.5"></path><path d="M1609.41 525.98L1429.09 524.55" stroke="hsl(228.5, 77.2%, 51.5%)" stroke-width="1.5"></path><path d="M-45.59 655.69L-45.59 655.69" stroke="hsl(228.5, 77.2%, 51.5%)" stroke-width="1.5"></path><path d="M-45.59 655.69L41.14 665.41" stroke="hsl(228.5, 77.2%, 51.5%)" stroke-width="1.5"></path><path d="M-45.59 655.69L58.99 561.87" stroke="hsl(228.5, 77.2%, 51.5%)" stroke-width="1.5"></path><path d="M-45.59 655.69L241.79 686.28" stroke="hsl(228.5, 77.2%, 51.5%)" stroke-width="1.5"></path><path d="M58.99 561.87L58.99 561.87" stroke="hsl(228.5, 77.2%, 51.5%)" stroke-width="1.5"></path><path d="M58.99 561.87L41.14 665.41" stroke="hsl(228.5, 77.2%, 51.5%)" stroke-width="1.5"></path><path d="M41.14 665.41L41.14 665.41" stroke="hsl(228.5, 77.2%, 51.5%)" stroke-width="1.5"></path><path d="M41.14 665.41L241.79 686.28" stroke="hsl(228.5, 77.2%, 51.5%)" stroke-width="1.5"></path><path d="M41.14 665.41L246.03 522.42" stroke="hsl(228.5, 77.2%, 51.5%)" stroke-width="1.5"></path><path d="M41.14 665.41L349.54 649.78" stroke="hsl(228.5, 77.2%, 51.5%)" stroke-width="1.5"></path><path d="M41.14 665.41L506 560.81" stroke="hsl(228.5, 77.2%, 51.5%)" stroke-width="1.5"></path><path d="M246.03 522.42L246.03 522.42" stroke="hsl(228.5, 77.2%, 51.5%)" stroke-width="1.5"></path><path d="M246.03 522.42L241.79 686.28" stroke="hsl(228.5, 77.2%, 51.5%)" stroke-width="1.5"></path><path d="M246.03 522.42L58.99 561.87" stroke="hsl(228.5, 77.2%, 51.5%)" stroke-width="1.5"></path><path d="M241.79 686.28L241.79 686.28" stroke="hsl(228.5, 77.2%, 51.5%)" stroke-width="1.5"></path><path d="M241.79 686.28L58.99 561.87" stroke="hsl(228.5, 77.2%, 51.5%)" stroke-width="1.5"></path><path d="M506 560.81L506 560.81" stroke="hsl(228.5, 77.2%, 51.5%)" stroke-width="1.5"></path><path d="M506 560.81L547.94 649.65" stroke="hsl(228.5, 77.2%, 51.5%)" stroke-width="1.5"></path><path d="M506 560.81L639.05 530.23" stroke="hsl(228.5, 77.2%, 51.5%)" stroke-width="1.5"></path><path d="M506 560.81L659.94 705.28" stroke="hsl(228.5, 77.2%, 51.5%)" stroke-width="1.5"></path><path d="M506 560.81L246.03 522.42" stroke="hsl(228.5, 77.2%, 51.5%)" stroke-width="1.5"></path><path d="M547.94 649.65L547.94 649.65" stroke="hsl(228.5, 77.2%, 51.5%)" stroke-width="1.5"></path><path d="M547.94 649.65L639.05 530.23" stroke="hsl(228.5, 77.2%, 51.5%)" stroke-width="1.5"></path><path d="M547.94 649.65L349.54 649.78" stroke="hsl(228.5, 77.2%, 51.5%)" stroke-width="1.5"></path><path d="M547.94 649.65L823.73 550.75" stroke="hsl(228.5, 77.2%, 51.5%)" stroke-width="1.5"></path><path d="M688.31 371.04L688.31 371.04" stroke="hsl(228.5, 77.2%, 51.5%)" stroke-width="1.5"></path><path d="M688.31 371.04L639.05 530.23" stroke="hsl(228.5, 77.2%, 51.5%)" stroke-width="1.5"></path><path d="M688.31 371.04L861.43 339.81" stroke="hsl(228.5, 77.2%, 51.5%)" stroke-width="1.5"></path><path d="M639.05 530.23L639.05 530.23" stroke="hsl(228.5, 77.2%, 51.5%)" stroke-width="1.5"></path><path d="M639.05 530.23L823.73 550.75" stroke="hsl(228.5, 77.2%, 51.5%)" stroke-width="1.5"></path><path d="M861.43 339.81L861.43 339.81" stroke="hsl(228.5, 77.2%, 51.5%)" stroke-width="1.5"></path><path d="M861.43 339.81L976.6 394.26" stroke="hsl(228.5, 77.2%, 51.5%)" stroke-width="1.5"></path><path d="M861.43 339.81L823.73 550.75" stroke="hsl(228.5, 77.2%, 51.5%)" stroke-width="1.5"></path><path d="M861.43 339.81L1004.42 506.1" stroke="hsl(228.5, 77.2%, 51.5%)" stroke-width="1.5"></path><path d="M861.43 339.81L1103.39 361.71" stroke="hsl(228.5, 77.2%, 51.5%)" stroke-width="1.5"></path><path d="M823.73 550.75L823.73 550.75" stroke="hsl(228.5, 77.2%, 51.5%)" stroke-width="1.5"></path><path d="M823.73 550.75L978.56 653.74" stroke="hsl(228.5, 77.2%, 51.5%)" stroke-width="1.5"></path><path d="M976.6 394.26L976.6 394.26" stroke="hsl(228.5, 77.2%, 51.5%)" stroke-width="1.5"></path><path d="M976.6 394.26L1004.42 506.1" stroke="hsl(228.5, 77.2%, 51.5%)" stroke-width="1.5"></path><path d="M976.6 394.26L1103.39 361.71" stroke="hsl(228.5, 77.2%, 51.5%)" stroke-width="1.5"></path><path d="M1004.42 506.1L1004.42 506.1" stroke="hsl(228.5, 77.2%, 51.5%)" stroke-width="1.5"></path><path d="M1004.42 506.1L978.56 653.74" stroke="hsl(228.5, 77.2%, 51.5%)" stroke-width="1.5"></path><path d="M1004.42 506.1L1103.39 361.71" stroke="hsl(228.5, 77.2%, 51.5%)" stroke-width="1.5"></path><path d="M1004.42 506.1L823.73 550.75" stroke="hsl(228.5, 77.2%, 51.5%)" stroke-width="1.5"></path><path d="M978.56 653.74L978.56 653.74" stroke="hsl(228.5, 77.2%, 51.5%)" stroke-width="1.5"></path><path d="M978.56 653.74L1158.07 658.72" stroke="hsl(228.5, 77.2%, 51.5%)" stroke-width="1.5"></path><path d="M978.56 653.74L976.6 394.26" stroke="hsl(228.5, 77.2%, 51.5%)" stroke-width="1.5"></path><path d="M1124.36 241.82L1124.36 241.82" stroke="hsl(228.5, 77.2%, 51.5%)" stroke-width="1.5"></path><path d="M1124.36 241.82L1103.39 361.71" stroke="hsl(228.5, 77.2%, 51.5%)" stroke-width="1.5"></path><path d="M1124.36 241.82L1309.63 260.66" stroke="hsl(228.5, 77.2%, 51.5%)" stroke-width="1.5"></path><path d="M1124.36 241.82L976.6 394.26" stroke="hsl(228.5, 77.2%, 51.5%)" stroke-width="1.5"></path><path d="M1103.39 361.71L1103.39 361.71" stroke="hsl(228.5, 77.2%, 51.5%)" stroke-width="1.5"></path><path d="M1158.07 658.72L1158.07 658.72" stroke="hsl(228.5, 77.2%, 51.5%)" stroke-width="1.5"></path><path d="M1158.07 658.72L1271.51 657.41" stroke="hsl(228.5, 77.2%, 51.5%)" stroke-width="1.5"></path><path d="M1158.07 658.72L1266.42 510.24" stroke="hsl(228.5, 77.2%, 51.5%)" stroke-width="1.5"></path><path d="M1258.89 -103.7L1258.89 -103.7" stroke="hsl(228.5, 77.2%, 51.5%)" stroke-width="1.5"></path><path d="M1258.89 -103.7L1304.37 111.89" stroke="hsl(228.5, 77.2%, 51.5%)" stroke-width="1.5"></path><path d="M1304.37 111.89L1304.37 111.89" stroke="hsl(228.5, 77.2%, 51.5%)" stroke-width="1.5"></path><path d="M1304.37 111.89L1309.63 260.66" stroke="hsl(228.5, 77.2%, 51.5%)" stroke-width="1.5"></path><path d="M1304.37 111.89L1431.88 189.89" stroke="hsl(228.5, 77.2%, 51.5%)" stroke-width="1.5"></path><path d="M1304.37 111.89L1460.2 77.52" stroke="hsl(228.5, 77.2%, 51.5%)" stroke-width="1.5"></path><path d="M1309.63 260.66L1309.63 260.66" stroke="hsl(228.5, 77.2%, 51.5%)" stroke-width="1.5"></path><path d="M1309.63 260.66L1295.53 393.89" stroke="hsl(228.5, 77.2%, 51.5%)" stroke-width="1.5"></path><path d="M1309.63 260.66L1431.88 189.89" stroke="hsl(228.5, 77.2%, 51.5%)" stroke-width="1.5"></path><path d="M1309.63 260.66L1401.97 374.23" stroke="hsl(228.5, 77.2%, 51.5%)" stroke-width="1.5"></path><path d="M1295.53 393.89L1295.53 393.89" stroke="hsl(228.5, 77.2%, 51.5%)" stroke-width="1.5"></path><path d="M1295.53 393.89L1401.97 374.23" stroke="hsl(228.5, 77.2%, 51.5%)" stroke-width="1.5"></path><path d="M1295.53 393.89L1266.42 510.24" stroke="hsl(228.5, 77.2%, 51.5%)" stroke-width="1.5"></path><path d="M1295.53 393.89L1429.09 524.55" stroke="hsl(228.5, 77.2%, 51.5%)" stroke-width="1.5"></path><path d="M1295.53 393.89L1103.39 361.71" stroke="hsl(228.5, 77.2%, 51.5%)" stroke-width="1.5"></path><path d="M1295.53 393.89L1124.36 241.82" stroke="hsl(228.5, 77.2%, 51.5%)" stroke-width="1.5"></path><path d="M1266.42 510.24L1266.42 510.24" stroke="hsl(228.5, 77.2%, 51.5%)" stroke-width="1.5"></path><path d="M1266.42 510.24L1271.51 657.41" stroke="hsl(228.5, 77.2%, 51.5%)" stroke-width="1.5"></path><path d="M1266.42 510.24L1429.09 524.55" stroke="hsl(228.5, 77.2%, 51.5%)" stroke-width="1.5"></path><path d="M1271.51 657.41L1271.51 657.41" stroke="hsl(228.5, 77.2%, 51.5%)" stroke-width="1.5"></path><path d="M1271.51 657.41L1450.13 702.03" stroke="hsl(228.5, 77.2%, 51.5%)" stroke-width="1.5"></path><path d="M1271.51 657.41L1429.09 524.55" stroke="hsl(228.5, 77.2%, 51.5%)" stroke-width="1.5"></path><path d="M1271.51 657.41L1295.53 393.89" stroke="hsl(228.5, 77.2%, 51.5%)" stroke-width="1.5"></path><path d="M1460.2 77.52L1460.2 77.52" stroke="hsl(228.5, 77.2%, 51.5%)" stroke-width="1.5"></path><path d="M1460.2 77.52L1537.7 68.28" stroke="hsl(228.5, 77.2%, 51.5%)" stroke-width="1.5"></path><path d="M1460.2 77.52L1431.88 189.89" stroke="hsl(228.5, 77.2%, 51.5%)" stroke-width="1.5"></path><path d="M1431.88 189.89L1431.88 189.89" stroke="hsl(228.5, 77.2%, 51.5%)" stroke-width="1.5"></path><path d="M1401.97 374.23L1401.97 374.23" stroke="hsl(228.5, 77.2%, 51.5%)" stroke-width="1.5"></path><path d="M1429.09 524.55L1429.09 524.55" stroke="hsl(228.5, 77.2%, 51.5%)" stroke-width="1.5"></path><path d="M1429.09 524.55L1401.97 374.23" stroke="hsl(228.5, 77.2%, 51.5%)" stroke-width="1.5"></path><path d="M1429.09 524.55L1450.13 702.03" stroke="hsl(228.5, 77.2%, 51.5%)" stroke-width="1.5"></path><path d="M1450.13 702.03L1450.13 702.03" stroke="hsl(228.5, 77.2%, 51.5%)" stroke-width="1.5"></path><path d="M1450.13 702.03L1553.3 682.86" stroke="hsl(228.5, 77.2%, 51.5%)" stroke-width="1.5"></path><path d="M1450.13 702.03L1609.41 525.98" stroke="hsl(228.5, 77.2%, 51.5%)" stroke-width="1.5"></path><path d="M1450.13 702.03L1266.42 510.24" stroke="hsl(228.5, 77.2%, 51.5%)" stroke-width="1.5"></path><path d="M1566.69 -82.22L1566.69 -82.22" stroke="hsl(228.5, 77.2%, 51.5%)" stroke-width="1.5"></path><path d="M1566.69 -82.22L1537.7 68.28" stroke="hsl(228.5, 77.2%, 51.5%)" stroke-width="1.5"></path><path d="M1566.69 -82.22L1460.2 77.52" stroke="hsl(228.5, 77.2%, 51.5%)" stroke-width="1.5"></path><path d="M1566.69 -82.22L1431.88 189.89" stroke="hsl(228.5, 77.2%, 51.5%)" stroke-width="1.5"></path><path d="M1566.69 -82.22L1258.89 -103.7" stroke="hsl(228.5, 77.2%, 51.5%)" stroke-width="1.5"></path><path d="M1566.69 -82.22L1574.12 237.49" stroke="hsl(228.5, 77.2%, 51.5%)" stroke-width="1.5"></path><path d="M1537.7 68.28L1537.7 68.28" stroke="hsl(228.5, 77.2%, 51.5%)" stroke-width="1.5"></path><path d="M1537.7 68.28L1431.88 189.89" stroke="hsl(228.5, 77.2%, 51.5%)" stroke-width="1.5"></path><path d="M1537.7 68.28L1574.12 237.49" stroke="hsl(228.5, 77.2%, 51.5%)" stroke-width="1.5"></path><path d="M1537.7 68.28L1304.37 111.89" stroke="hsl(228.5, 77.2%, 51.5%)" stroke-width="1.5"></path><path d="M1574.12 237.49L1574.12 237.49" stroke="hsl(228.5, 77.2%, 51.5%)" stroke-width="1.5"></path><path d="M1574.12 237.49L1431.88 189.89" stroke="hsl(228.5, 77.2%, 51.5%)" stroke-width="1.5"></path><path d="M1574.12 237.49L1460.2 77.52" stroke="hsl(228.5, 77.2%, 51.5%)" stroke-width="1.5"></path><path d="M1574.12 237.49L1401.97 374.23" stroke="hsl(228.5, 77.2%, 51.5%)" stroke-width="1.5"></path><path d="M1574.12 237.49L1309.63 260.66" stroke="hsl(228.5, 77.2%, 51.5%)" stroke-width="1.5"></path><path d="M1574.12 237.49L1609.41 525.98" stroke="hsl(228.5, 77.2%, 51.5%)" stroke-width="1.5"></path><path d="M1553.3 682.86L1553.3 682.86" stroke="hsl(228.5, 77.2%, 51.5%)" stroke-width="1.5"></path><path d="M1553.3 682.86L1429.09 524.55" stroke="hsl(228.5, 77.2%, 51.5%)" stroke-width="1.5"></path><path d="M1553.3 682.86L1271.51 657.41" stroke="hsl(228.5, 77.2%, 51.5%)" stroke-width="1.5"></path><circle r="25" cx="349.54" cy="649.78" fill="url(#SvgjsRadialGradient1001)"></circle><circle r="25" cx="659.94" cy="705.28" fill="url(#SvgjsRadialGradient1001)"></circle><circle r="25" cx="1429.14" cy="-45.31" fill="url(#SvgjsRadialGradient1001)"></circle><circle r="25" cx="1609.41" cy="525.98" fill="url(#SvgjsRadialGradient1001)"></circle><circle r="5" cx="-45.59" cy="655.69" fill="#8b9ad9"></circle><circle r="5" cx="58.99" cy="561.87" fill="#8b9ad9"></circle><circle r="5" cx="41.14" cy="665.41" fill="#8b9ad9"></circle><circle r="5" cx="246.03" cy="522.42" fill="#8b9ad9"></circle><circle r="5" cx="241.79" cy="686.28" fill="#8b9ad9"></circle><circle r="5" cx="506" cy="560.81" fill="#8b9ad9"></circle><circle r="5" cx="547.94" cy="649.65" fill="#8b9ad9"></circle><circle r="5" cx="688.31" cy="371.04" fill="#8b9ad9"></circle><circle r="5" cx="639.05" cy="530.23" fill="#8b9ad9"></circle><circle r="5" cx="861.43" cy="339.81" fill="#8b9ad9"></circle><circle r="5" cx="823.73" cy="550.75" fill="#8b9ad9"></circle><circle r="5" cx="976.6" cy="394.26" fill="#8b9ad9"></circle><circle r="5" cx="1004.42" cy="506.1" fill="#8b9ad9"></circle><circle r="5" cx="978.56" cy="653.74" fill="#8b9ad9"></circle><circle r="5" cx="1124.36" cy="241.82" fill="#8b9ad9"></circle><circle r="5" cx="1103.39" cy="361.71" fill="#8b9ad9"></circle><circle r="5" cx="1158.07" cy="658.72" fill="#8b9ad9"></circle><circle r="5" cx="1258.89" cy="-103.7" fill="#8b9ad9"></circle><circle r="5" cx="1304.37" cy="111.89" fill="#8b9ad9"></circle><circle r="5" cx="1309.63" cy="260.66" fill="#8b9ad9"></circle><circle r="5" cx="1295.53" cy="393.89" fill="#8b9ad9"></circle><circle r="5" cx="1266.42" cy="510.24" fill="#8b9ad9"></circle><circle r="5" cx="1271.51" cy="657.41" fill="#8b9ad9"></circle><circle r="5" cx="1460.2" cy="77.52" fill="#8b9ad9"></circle><circle r="5" cx="1431.88" cy="189.89" fill="#8b9ad9"></circle><circle r="5" cx="1401.97" cy="374.23" fill="#8b9ad9"></circle><circle r="5" cx="1429.09" cy="524.55" fill="#8b9ad9"></circle><circle r="5" cx="1450.13" cy="702.03" fill="#8b9ad9"></circle><circle r="5" cx="1566.69" cy="-82.22" fill="#8b9ad9"></circle><circle r="5" cx="1537.7" cy="68.28" fill="#8b9ad9"></circle><circle r="5" cx="1574.12" cy="237.49" fill="#8b9ad9"></circle><circle r="5" cx="1553.3" cy="682.86" fill="#8b9ad9"></circle></g><defs><mask id="SvgjsMask1000"><rect width="1440" height="560" fill="#ffffff"></rect></mask><radialGradient id="SvgjsRadialGradient1001"><stop stop-color="#ffffff" offset="0.1"></stop><stop stop-color="#1735b3" offset="0.2"></stop><stop stop-color="rgba(23, 53, 179, 0)" offset="1"></stop></radialGradient></defs></svg>