<svg xmlns="http://www.w3.org/2000/svg" version="1.1" xmlns:xlink="http://www.w3.org/1999/xlink" xmlns:svgjs="http://svgjs.com/svgjs" width="1440" height="560" preserveAspectRatio="none" viewBox="0 0 1440 560"><g mask="url(&quot;#SvgjsMask1061&quot;)" fill="none"><rect width="1440" height="560" x="0" y="0" fill="#0e2a47"></rect><g transform="translate(-14.4, 5.6)" stroke-linecap="round"><path d="M320 154.46 L320 405.54" stroke-width="15" stroke="#dd1133"></path><path d="M340 132.25 L340 427.75" stroke-width="15" stroke="#dd1133"></path><path d="M360 255.34 L360 304.67" stroke-width="15" stroke="#dd1133"></path><path d="M380 192.39 L380 367.61" stroke-width="15" stroke="#dd1133"></path><path d="M400 240.81 L400 319.19" stroke-width="15" stroke="#dd1133"></path><path d="M420 165.69 L420 394.31" stroke-width="15" stroke="#dd1133"></path><path d="M440 154.58 L440 405.42" stroke-width="15" stroke="#3a7cc3"></path><path d="M460 258.06 L460 301.94" stroke-width="15" stroke="#dd1133"></path><path d="M480 175.43 L480 384.57" stroke-width="15" stroke="#3a7cc3"></path><path d="M500 195.99 L500 364.01" stroke-width="15" stroke="#dd1133"></path><path d="M520 158.17 L520 401.83" stroke-width="15" stroke="#3a7cc3"></path><path d="M540 147.19 L540 412.81" stroke-width="15" stroke="#3a7cc3"></path><path d="M560 200.87 L560 359.13" stroke-width="15" stroke="#3a7cc3"></path><path d="M580 144.47 L580 415.53" stroke-width="15" stroke="#3a7cc3"></path><path d="M600 181.71 L600 378.29" stroke-width="15" stroke="#dd1133"></path><path d="M620 259.89 L620 300.11" stroke-width="15" stroke="#3a7cc3"></path><path d="M640 190.25 L640 369.75" stroke-width="15" stroke="#3a7cc3"></path><path d="M660 188.09 L660 371.9" stroke-width="15" stroke="#3a7cc3"></path><path d="M680 146.98 L680 413.02" stroke-width="15" stroke="#dd1133"></path><path d="M700 227 L700 333" stroke-width="15" stroke="#dd1133"></path><path d="M720 239.12 L720 320.88" stroke-width="15" stroke="#dd1133"></path><path d="M740 252.3 L740 307.7" stroke-width="15" stroke="#dd1133"></path><path d="M760 239.96 L760 320.04" stroke-width="15" stroke="#dd1133"></path><path d="M780 235.66 L780 324.34" stroke-width="15" stroke="#dd1133"></path><path d="M800 218.76 L800 341.24" stroke-width="15" stroke="#3a7cc3"></path><path d="M820 158.78 L820 401.22" stroke-width="15" stroke="#dd1133"></path><path d="M840 205.92 L840 354.08" stroke-width="15" stroke="#dd1133"></path><path d="M860 184.04 L860 375.96" stroke-width="15" stroke="#3a7cc3"></path><path d="M880 162.67 L880 397.33" stroke-width="15" stroke="#dd1133"></path><path d="M900 172.91 L900 387.09" stroke-width="15" stroke="#3a7cc3"></path><path d="M920 151.81 L920 408.19" stroke-width="15" stroke="#3a7cc3"></path><path d="M940 199.55 L940 360.45" stroke-width="15" stroke="#dd1133"></path><path d="M960 219.59 L960 340.4" stroke-width="15" stroke="#3a7cc3"></path><path d="M980 158.53 L980 401.47" stroke-width="15" stroke="#3a7cc3"></path><path d="M1000 258.21 L1000 301.79" stroke-width="15" stroke="#3a7cc3"></path><path d="M1020 131.44 L1020 428.56" stroke-width="15" stroke="#3a7cc3"></path><path d="M1040 174.34 L1040 385.65" stroke-width="15" stroke="#3a7cc3"></path><path d="M1060 163.73 L1060 396.27" stroke-width="15" stroke="#3a7cc3"></path><path d="M1080 142.74 L1080 417.26" stroke-width="15" stroke="#dd1133"></path><path d="M1100 238.32 L1100 321.68" stroke-width="15" stroke="#dd1133"></path><path d="M1120 147.36 L1120 412.64" stroke-width="15" stroke="#3a7cc3"></path></g></g><defs><mask id="SvgjsMask1061"><rect width="1440" height="560" fill="#ffffff"></rect></mask></defs></svg>